<?xml version="1.0" encoding="utf-8"?>
<!-- Generator: Adobe Illustrator 24.0.0, SVG Export Plug-In . SVG Version: 6.00 Build 0)  -->
<svg version="1.1" id="레이어_1" xmlns="http://www.w3.org/2000/svg" xmlns:xlink="http://www.w3.org/1999/xlink" x="0px"
	 y="0px" viewBox="0 0 188.3 31.1" style="enable-background:new 0 0 188.3 31.1;" xml:space="preserve">
<style type="text/css">
	.st0{fill:#FFFFFF;}
</style>
<g>
	<g>
		<path class="st0" d="M164.9,11.8L164.9,11.8l-1.2,3.3h2.3L164.9,11.8z M164.9,11.8L164.9,11.8l-1.2,3.3h2.3L164.9,11.8z
			 M168.7,0.2c-9.3,0-16.8,5.9-16.8,13.2c0,4.5,2.9,8.5,7.3,10.9c0,0-0.6,3.2-3.9,6.2c0,0-0.3,0.6,0.7,0.4s7.1-2.4,9.8-4.4
			c0,0,1.9,0.2,2.9,0.2c9.3,0,16.8-5.9,16.8-13.2C185.5,6.1,178,0.2,168.7,0.2z M159.9,17.5c0,0.2-0.1,0.4-0.2,0.6
			c-0.2,0.2-0.4,0.2-0.6,0.2h-0.2c-0.2,0-0.4-0.1-0.6-0.2c-0.2-0.2-0.2-0.4-0.2-0.6v-6h-1.6c-0.5,0-0.9-0.4-0.9-0.8
			c0-0.5,0.4-0.9,0.9-0.9h5c0.5,0,0.9,0.4,0.9,0.9s-0.4,0.8-0.9,0.8H160v6H159.9z M168.1,18.3c-0.4,0.2-0.9-0.1-1.1-0.5l-0.4-1.2
			h-3.4l-0.4,1.2c-0.1,0.4-0.6,0.7-1.1,0.5c-0.4-0.1-0.7-0.6-0.5-1.1l2.5-6.6v-0.1c0.1-0.5,0.6-0.9,1.2-0.9c0.5,0,1,0.3,1.2,0.7l0,0
			l2.5,6.8C168.7,17.7,168.5,18.2,168.1,18.3z M173.4,18.3H170c-0.4,0-0.8-0.3-0.8-0.8c0-0.1,0-0.1,0-0.1v-0.1v-6.6
			c0-0.5,0.4-0.9,0.9-0.9s0.9,0.4,0.9,0.9v6.1h2.3c0.4,0,0.8,0.3,0.8,0.8C174.2,18,173.9,18.3,173.4,18.3z M180.7,18.2
			c-0.4,0.3-0.9,0.2-1.2-0.2l-2.5-3.2l-0.5,0.5v2.1c0,0.5-0.4,0.9-0.9,0.9s-0.9-0.4-0.9-0.9v-6.8c0-0.5,0.4-0.9,0.9-0.9
			s0.9,0.4,0.9,0.9V13l2.9-2.9c0.3-0.3,0.8-0.3,1.2,0c0.3,0.3,0.3,0.8,0,1.1l-2.3,2.3l2.6,3.4C181.2,17.4,181.1,17.9,180.7,18.2z
			 M164.9,11.8l-1.1,3.3h2.3L164.9,11.8L164.9,11.8z M164.9,11.8L164.9,11.8l-1.2,3.3h2.3L164.9,11.8z M164.9,11.8L164.9,11.8
			l-1.2,3.3h2.3L164.9,11.8z"/>
	</g>
</g>
<text transform="matrix(1 0 0 1 0.9883 -10.0429)" class="st0" style="font-family:'SDGtNeocUni-cRg-KSCpc-EUC-H'; font-size:20.2319px;">카톡플러스친구</text>
<g>
	<path class="st0" d="M4.6,11.5l6.8-0.3c0.3-0.8,0.4-1.7,0.5-2.6H5.4V7.1h8.3v0.1c0,6.4-3.2,9.9-8.6,11.9l-1-1.5
		c3.4-1.2,5.4-2.8,6.6-4.9l-5.8,0.3L4.6,11.5z M18.8,13.2v9.7H17V6h1.8v5.6h3.1v1.6H18.8z"/>
	<path class="st0" d="M27.3,11.1v1.7h9.9v1.5h-5v1.9h7.6v1.5h-17v-1.5h7.7v-1.9h-4.9V6.4h11.5v1.5h-9.8v1.6h9.6v1.5H27.3z
		 M35.2,25.1v-4.2h-9.8v-1.6h11.5v5.7H35.2z"/>
	<path class="st0" d="M41.4,16.3v-1.5h17v1.5H41.4z M56.2,13.3H43.6v-1.5h2.7l-0.4-3l1.8-0.2l0.4,3.1h3.6l0.4-3.1l1.8,0.2l-0.5,3
		h2.7V13.3z M56,7.9H43.9V6.3H56V7.9z M44.2,25.2v-4.5h9.7v-1.4h-9.7v-1.5h11.4v4.5h-9.6v1.5H56v1.5H44.2z"/>
	<path class="st0" d="M71.1,17.8c-2.9,0.6-6.5,0.8-10.2,0.7V12h6.4V8.5h-6.4V6.9H69v6.5h-6.4v3.4c2.5,0.1,5.6-0.1,8.3-0.6L71.1,17.8
		z M74.1,22.9V13h-3.7v-1.5h3.7V6h1.8v16.9H74.1z"/>
	<path class="st0" d="M78.6,20.7v-1.6h17v1.6H78.6z M88.1,6.9v1c0,3.2,2.8,5.7,6.3,6.6L93.5,16c-3.2-0.9-5.5-2.8-6.4-4.9
		c-0.9,2.1-3.2,4.1-6.3,5l-0.9-1.5c3.5-1,6.3-3.5,6.3-6.7v-1H88.1z"/>
	<path class="st0" d="M104.2,11.2v0.1c0,2.8,2.3,4.1,4.7,4.8l-0.8,1.4c-2-0.5-4.2-1.9-4.8-3.4c-0.6,1.5-2.6,3-4.8,3.7l-0.8-1.4
		c2.4-0.7,4.6-2.2,4.6-5.1v-0.1h-4.3V9.6h10.3v1.5H104.2z M100.3,8.1V6.5h5.9v1.6H100.3z M102.3,24.5v-5.9h1.7V23h9.4v1.6H102.3z
		 M111.4,19.4V6h1.8v13.4H111.4z"/>
	<path class="st0" d="M123.5,24.1v-7.4h-7.6v-1.6h11.7c0.5-2,0.8-4.8,0.8-6.8h-9.9V6.8h11.7c0.1,3.2-0.2,6.2-0.7,8.4h3.6v1.6h-7.6
		v7.4H123.5z"/>
</g>
</svg>
