<?xml version="1.0" encoding="utf-8"?>
<!-- Generator: Adobe Illustrator 24.0.0, SVG Export Plug-In . SVG Version: 6.00 Build 0)  -->
<svg version="1.1" id="레이어_1" xmlns="http://www.w3.org/2000/svg" xmlns:xlink="http://www.w3.org/1999/xlink" x="0px"
	 y="0px" viewBox="0 0 188.3 31.1" style="enable-background:new 0 0 188.3 31.1;" xml:space="preserve">
<style type="text/css">
	.st0{fill:#FFFFFF;}
</style>
<g>
	<g>
		<path class="st0" d="M164.9,11.8L164.9,11.8l-1.2,3.3h2.3L164.9,11.8z M164.9,11.8L164.9,11.8l-1.2,3.3h2.3L164.9,11.8z
			 M168.7,0.2c-9.3,0-16.8,5.9-16.8,13.2c0,4.5,2.9,8.5,7.3,10.9c0,0-0.6,3.2-3.9,6.2c0,0-0.3,0.6,0.7,0.4s7.1-2.4,9.8-4.4
			c0,0,1.9,0.2,2.9,0.2c9.3,0,16.8-5.9,16.8-13.2C185.5,6.1,178,0.2,168.7,0.2z M159.9,17.5c0,0.2-0.1,0.4-0.2,0.6
			c-0.2,0.2-0.4,0.2-0.6,0.2h-0.2c-0.2,0-0.4-0.1-0.6-0.2c-0.2-0.2-0.2-0.4-0.2-0.6v-6h-1.6c-0.5,0-0.9-0.4-0.9-0.8
			c0-0.5,0.4-0.9,0.9-0.9h5c0.5,0,0.9,0.4,0.9,0.9s-0.4,0.8-0.9,0.8H160v6H159.9z M168.1,18.3c-0.4,0.2-0.9-0.1-1.1-0.5l-0.4-1.2
			h-3.4l-0.4,1.2c-0.1,0.4-0.6,0.7-1.1,0.5c-0.4-0.1-0.7-0.6-0.5-1.1l2.5-6.6v-0.1c0.1-0.5,0.6-0.9,1.2-0.9c0.5,0,1,0.3,1.2,0.7l0,0
			l2.5,6.8C168.7,17.7,168.5,18.2,168.1,18.3z M173.4,18.3H170c-0.4,0-0.8-0.3-0.8-0.8c0-0.1,0-0.1,0-0.1v-0.1v-6.6
			c0-0.5,0.4-0.9,0.9-0.9s0.9,0.4,0.9,0.9v6.1h2.3c0.4,0,0.8,0.3,0.8,0.8C174.2,18,173.9,18.3,173.4,18.3z M180.7,18.2
			c-0.4,0.3-0.9,0.2-1.2-0.2l-2.5-3.2l-0.5,0.5v2.1c0,0.5-0.4,0.9-0.9,0.9s-0.9-0.4-0.9-0.9v-6.8c0-0.5,0.4-0.9,0.9-0.9
			s0.9,0.4,0.9,0.9V13l2.9-2.9c0.3-0.3,0.8-0.3,1.2,0c0.3,0.3,0.3,0.8,0,1.1l-2.3,2.3l2.6,3.4C181.2,17.4,181.1,17.9,180.7,18.2z
			 M164.9,11.8l-1.1,3.3h2.3L164.9,11.8L164.9,11.8z M164.9,11.8L164.9,11.8l-1.2,3.3h2.3L164.9,11.8z M164.9,11.8L164.9,11.8
			l-1.2,3.3h2.3L164.9,11.8z"/>
	</g>
</g>
<g>
	<path class="st0" d="M11.8,6.9c0,6.8-3.3,10.6-8.8,12.6l-1.3-2c2.8-1,5-2.4,6.2-4.3l-5.3,0.4l-0.4-2.2l6.7-0.3
		c0.2-0.6,0.3-1.3,0.4-2H3V6.9H11.8z M17,13.6v9.7h-2.6V5.9H17v5.5h3.1v2.1H17z"/>
	<path class="st0" d="M26.4,11.6v1.1H36v2.1h-4.8v1.3h7.5v2.2H21.2v-2.2h7.5v-1.3H24V6.3h11.9v2.1h-9.5v1.1h9.3v2.1H26.4z
		 M33.2,25.6v-4.1h-9.4v-2.2h12v6.3H33.2z"/>
	<path class="st0" d="M40.5,16.8v-2.2H58v2.2H40.5z M55.8,13.7h-13v-2h2.5l-0.3-2.4L47.6,9l0.2,2.7h2.9L51,9l2.7,0.2l-0.5,2.4h2.6
		V13.7z M55.6,8.3H43V6.1h12.6V8.3z M43.3,25.7v-5h9.3v-0.9h-9.3v-2.1h11.8v5h-9.3v0.9h9.8v2.1H43.3z"/>
	<path class="st0" d="M70.7,18.4c-2.7,0.6-6.6,0.7-10,0.5v-7.3h6.1V9h-6.1V6.8h8.7v6.9h-6.1v3.1c2.2,0.1,4.9,0,7.2-0.5L70.7,18.4z
		 M73.7,23.2v-9.9h-3.2v-2.1h3.2V5.9h2.6v17.3H73.7z"/>
	<path class="st0" d="M79.2,21.2v-2.1h17.5v2.1H79.2z M89.4,6.7v1.1c0,3.4,3,5.5,6,6.4l-1.2,2.2c-3-0.9-5.2-2.6-6.3-4.8
		c-1.1,2.3-3.4,4-6.3,4.9l-1.2-2.2c3.1-0.8,6-3,6-6.4V6.7H89.4z"/>
	<path class="st0" d="M106.3,11.7c0.2,2.3,2.2,3.5,4.5,4.1l-1.1,2.1c-1.8-0.4-4.1-1.9-4.8-3.3c-0.6,1.5-2.6,3-4.7,3.6l-1.2-2
		c2.1-0.7,4.2-2.1,4.4-4.4h-3.9V9.5h10.6v2.1H106.3z M101.8,8.5V6.4h6.2v2.1H101.8z M103.6,25v-6.4h2.5v4.2h9.1V25H103.6z
		 M112.4,19.7V5.9h2.5v13.8H112.4z"/>
	<path class="st0" d="M125.3,24.6v-7.3h-7.5v-2.2h11.7c0.4-1.8,0.6-4.6,0.5-6.3h-9.6V6.6h12.2c0.1,3.1-0.2,6.2-0.7,8.5h3.4v2.2h-7.4
		v7.3H125.3z"/>
</g>
<text transform="matrix(1 0 0 1 0.9883 -10.0429)" style="font-family:'SDGtNeocUni-fBd-KSCpc-EUC-H'; font-size:20.2319px;">카톡플러스친구</text>
</svg>
