<?xml version="1.0" encoding="utf-8"?>
<!-- Generator: Adobe Illustrator 24.0.0, SVG Export Plug-In . SVG Version: 6.00 Build 0)  -->
<svg version="1.1" id="레이어_1" xmlns="http://www.w3.org/2000/svg" xmlns:xlink="http://www.w3.org/1999/xlink" x="0px"
	 y="0px" viewBox="0 0 142 52" style="enable-background:new 0 0 142 52;" xml:space="preserve">
<style type="text/css">
	.st0{fill:#FFFFFF;}
</style>
<g>
	<path class="st0" d="M16.5,16.1l0.5,0.1l-1.7,5.4H0.1V21h0.8c0.8,0,1.4-0.3,1.8-0.8c0.2-0.3,0.3-1,0.3-2.1V5.3c0-1.2-0.1-2-0.4-2.3
		C2.1,2.6,1.6,2.4,0.8,2.4H0.1V1.8H9v0.5c-0.5,0-1,0-1.3,0.1C7.3,2.5,7,2.6,6.8,2.7C6.6,2.8,6.4,2.9,6.2,3C6.1,3.1,6,3.3,5.9,3.4
		c-0.2,0.3-0.2,1-0.2,2.2V18c0,0.7,0.1,1.2,0.2,1.5s0.3,0.5,0.6,0.6c0.3,0.1,1,0.1,2.3,0.1h1.4c1.5,0,2.6-0.1,3.2-0.3
		c0.3-0.1,0.6-0.3,0.9-0.4c0.3-0.2,0.5-0.4,0.8-0.7c0.3-0.3,0.5-0.7,0.8-1.1C16,17.2,16.3,16.7,16.5,16.1z"/>
	<path class="st0" d="M20.8,13.2c0,1,0.1,1.9,0.4,2.7c0.3,0.8,0.6,1.4,1.1,2c0.4,0.5,1,1,1.5,1.3c0.6,0.3,1.2,0.4,1.9,0.4
		c0.9,0,1.6-0.2,2.3-0.7c0.6-0.5,1.2-1.3,1.6-2.5l0.5,0.3c-0.1,0.6-0.3,1.3-0.6,1.9c-0.3,0.6-0.7,1.2-1.2,1.7s-1,0.9-1.6,1.2
		c-0.6,0.3-1.3,0.5-2,0.5c-0.8,0-1.5-0.2-2.2-0.5s-1.3-0.8-1.8-1.4c-0.5-0.6-1-1.3-1.3-2.2c-0.3-0.8-0.5-1.8-0.5-2.9
		c0-1.1,0.2-2.2,0.5-3.1s0.8-1.6,1.3-2.3s1.2-1.1,1.9-1.4C23.2,8,24,7.8,24.9,7.8c0.7,0,1.4,0.1,2,0.4c0.6,0.3,1.2,0.6,1.6,1.1
		s0.8,1,1.1,1.7s0.4,1.4,0.4,2.2H20.8z M20.8,12.4h6.1c-0.1-1.2-0.4-2.1-0.9-2.7c-0.5-0.6-1.2-0.9-2-0.9c-0.4,0-0.8,0.1-1.1,0.2
		s-0.7,0.4-1,0.7c-0.3,0.3-0.5,0.7-0.8,1.1C21,11.3,20.8,11.9,20.8,12.4z M27.7,1.4l-4.3,5h-0.5l1.5-5C24.5,1.4,27.7,1.4,27.7,1.4z"
		/>
	<path class="st0" d="M38.8,21.5V21h0.8c0.3,0,0.6,0,0.9-0.1s0.5-0.2,0.7-0.4c0.2-0.2,0.3-0.5,0.4-0.9s0.1-0.9,0.1-1.6V5.3
		c0-1.2-0.1-2-0.4-2.3c-0.4-0.4-0.9-0.6-1.7-0.6h-0.8V1.8h8c2.9,0,5.2,0.3,6.7,1c1.5,0.7,2.8,1.8,3.7,3.3c0.9,1.6,1.4,3.4,1.4,5.4
		c0,1.5-0.2,2.8-0.7,4c-0.5,1.2-1.2,2.3-2.1,3.1s-2.1,1.6-3.5,2.1c-1.4,0.5-3,0.7-4.8,0.7C47.5,21.5,38.8,21.5,38.8,21.5z
		 M44.4,20.1c1.2,0.3,2.2,0.4,3.1,0.4c1.1,0,2.1-0.2,3.1-0.6c1-0.4,1.8-1,2.5-1.8c0.7-0.8,1.3-1.7,1.7-2.8s0.6-2.3,0.6-3.6
		c0-1.4-0.2-2.6-0.6-3.7c-0.4-1.1-0.9-2-1.7-2.8c-0.7-0.8-1.5-1.3-2.5-1.7c-1-0.4-2-0.6-3.2-0.6c-0.8,0-1.8,0.1-3,0.4L44.4,20.1
		L44.4,20.1z"/>
	<path class="st0" d="M65.2,7.8v10.7c0,0.6,0,1.1,0.1,1.5c0.1,0.3,0.2,0.6,0.4,0.7c0.2,0.1,0.4,0.2,0.6,0.3c0.3,0,0.6,0,0.9,0v0.5
		h-6.5V21c0.5,0,0.8,0,1.1-0.1c0.3-0.1,0.5-0.2,0.6-0.4c0.1-0.2,0.2-0.4,0.3-0.8c0-0.3,0-0.7,0-1.3v-5.1c0-0.8,0-1.5,0-2
		c0-0.5-0.1-0.9-0.2-1.1c-0.1-0.2-0.2-0.4-0.3-0.4c-0.1-0.1-0.3-0.1-0.5-0.1c-0.1,0-0.3,0-0.4,0.1c-0.2,0-0.3,0.1-0.5,0.2l-0.2-0.5
		l4-1.6C64.6,7.8,65.2,7.8,65.2,7.8z M64,0.9c0.4,0,0.8,0.1,1.1,0.4c0.3,0.3,0.4,0.6,0.4,1c0,0.4-0.1,0.8-0.4,1S64.4,3.8,64,3.8
		s-0.8-0.1-1-0.4s-0.4-0.6-0.4-1c0-0.4,0.1-0.8,0.4-1C63.3,1,63.6,0.9,64,0.9z"/>
	<path class="st0" d="M76.4,19.6c-0.7,0.5-1.3,0.9-1.7,1.3c-0.4,0.3-0.7,0.5-0.9,0.6c-0.5,0.3-1.1,0.4-1.7,0.4
		c-0.5,0-0.9-0.1-1.3-0.3c-0.4-0.2-0.7-0.4-1-0.7c-0.3-0.3-0.5-0.6-0.7-1.1S69,18.9,69,18.4c0-0.6,0.1-1.1,0.4-1.6
		c0.2-0.5,0.6-0.9,1.1-1.3c0.5-0.4,1.1-0.8,1.9-1.1c1.2-0.6,2.6-1.1,4-1.6v-0.5c0-0.7-0.1-1.2-0.2-1.7S76,9.7,75.8,9.5
		S75.3,9,75,8.9s-0.7-0.2-1-0.2c-0.6,0-1.1,0.2-1.5,0.5s-0.5,0.7-0.5,1.1l0,0.8c0,0.4-0.1,0.8-0.3,1c-0.2,0.2-0.5,0.4-0.9,0.4
		c-0.4,0-0.7-0.1-0.9-0.4c-0.2-0.3-0.3-0.6-0.3-1c0-0.4,0.1-0.8,0.3-1.2c0.2-0.4,0.5-0.8,0.9-1.1s0.9-0.6,1.5-0.8
		c0.6-0.2,1.3-0.3,2.1-0.3c1,0,1.9,0.1,2.6,0.5c0.7,0.3,1.2,0.8,1.6,1.6c0.2,0.4,0.3,1.3,0.3,2.6v4.5c0,0.8,0,1.4,0,1.8
		c0,0.4,0.1,0.7,0.1,0.9c0.1,0.2,0.1,0.3,0.2,0.3c0.1,0,0.2,0,0.3,0c0.1,0,0.2,0,0.3,0c0.1,0,0.2-0.1,0.3-0.2
		c0.1-0.1,0.3-0.2,0.4-0.4c0.2-0.1,0.3-0.4,0.6-0.6v0.8C80,21.1,79,21.8,78,21.8c-0.5,0-0.8-0.2-1.1-0.5
		C76.6,21,76.4,20.4,76.4,19.6z M76.4,18.7v-5.1c-1,0.4-2.2,0.9-3.5,1.6c-0.5,0.3-0.8,0.6-1.1,1c-0.3,0.5-0.4,1-0.4,1.5
		c0,0.4,0.1,0.7,0.2,1s0.3,0.5,0.5,0.8c0.2,0.2,0.4,0.4,0.7,0.5s0.5,0.2,0.8,0.2C74.3,20.1,75.2,19.6,76.4,18.7z"/>
	<path class="st0" d="M86,10.7c0.5-0.5,0.9-0.9,1.2-1.1c0.3-0.3,0.5-0.4,0.6-0.5c0.4-0.4,0.9-0.7,1.4-0.9c0.5-0.2,1-0.3,1.5-0.3
		c0.8,0,1.6,0.2,2.2,0.7c0.6,0.5,1,1.2,1.2,2.1c0.5-0.6,0.9-1.1,1.3-1.4c0.4-0.4,0.8-0.7,1.2-0.9C96.9,8.2,97.2,8,97.6,8
		s0.7-0.1,1.1-0.1c0.5,0,0.9,0.1,1.4,0.3s0.8,0.4,1.1,0.8s0.6,0.9,0.8,1.5c0.2,0.6,0.3,1.4,0.3,2.4v5.7c0,0.4,0,0.8,0,1.1
		s0.1,0.6,0.2,0.8c0.1,0.2,0.3,0.4,0.6,0.4s0.7,0.1,1.1,0.1v0.5h-6.6V21h0.3c0.3,0,0.6,0,0.9-0.1s0.4-0.2,0.6-0.4
		c0.1-0.2,0.3-0.4,0.3-0.8c0.1-0.3,0.1-0.8,0.1-1.3v-5.7c0-0.6-0.1-1.2-0.2-1.6s-0.3-0.7-0.4-1C99,10,98.7,9.8,98.5,9.7
		c-0.3-0.1-0.6-0.1-0.9-0.1c-0.3,0-0.5,0-0.8,0.1S96.3,9.8,96,9.9c-0.3,0.1-0.6,0.3-0.9,0.6c-0.3,0.2-0.7,0.6-1,1.1v6.9
		c0,0.5,0,0.9,0,1.1c0,0.3,0.1,0.5,0.1,0.6c0.1,0.1,0.1,0.2,0.2,0.3c0.1,0.1,0.2,0.1,0.4,0.2c0.3,0.1,0.8,0.2,1.4,0.2v0.5h-6.7V21
		c0.5,0,0.9,0,1.2-0.1c0.3-0.1,0.5-0.2,0.7-0.4c0.1-0.2,0.2-0.4,0.3-0.8c0-0.3,0-0.7,0-1.2v-5.7c0-0.6-0.1-1.1-0.2-1.6
		s-0.3-0.7-0.5-1c-0.2-0.3-0.4-0.4-0.7-0.5s-0.6-0.2-0.9-0.2s-0.7,0.1-1,0.2c-0.3,0.1-0.7,0.3-0.9,0.4c-0.3,0.2-0.6,0.4-0.8,0.6
		c-0.3,0.2-0.5,0.4-0.6,0.6v7.1c0,0.5,0,0.8,0,1.1s0.1,0.5,0.1,0.6s0.1,0.3,0.2,0.4c0.1,0.1,0.2,0.1,0.3,0.2
		c0.2,0.1,0.7,0.2,1.4,0.2v0.5h-6.6V21c0.4,0,0.8,0,1.1-0.1c0.3-0.1,0.5-0.2,0.6-0.4c0.1-0.2,0.2-0.4,0.3-0.8s0.1-0.7,0.1-1.3v-5.1
		c0-0.9,0-1.5,0-2c0-0.5-0.1-0.9-0.2-1.1c-0.1-0.3-0.2-0.4-0.3-0.5c-0.1-0.1-0.3-0.1-0.5-0.1c-0.1,0-0.3,0-0.4,0.1
		c-0.2,0-0.3,0.1-0.5,0.2l-0.2-0.5l4-1.6H86L86,10.7L86,10.7z"/>
	<path class="st0" d="M112.7,19.6c-0.7,0.5-1.3,0.9-1.7,1.3c-0.4,0.3-0.7,0.5-0.9,0.6c-0.5,0.3-1.1,0.4-1.7,0.4
		c-0.5,0-0.9-0.1-1.3-0.3c-0.4-0.2-0.7-0.4-1-0.7c-0.3-0.3-0.5-0.6-0.7-1.1s-0.2-0.9-0.2-1.4c0-0.6,0.1-1.1,0.4-1.6
		c0.2-0.5,0.6-0.9,1.1-1.3c0.5-0.4,1.1-0.8,1.9-1.1c1.2-0.6,2.6-1.1,4-1.6v-0.5c0-0.7-0.1-1.2-0.2-1.7s-0.3-0.8-0.5-1.1
		c-0.2-0.3-0.5-0.5-0.8-0.6c-0.3-0.1-0.7-0.2-1-0.2c-0.6,0-1.1,0.2-1.5,0.5s-0.5,0.7-0.5,1.1l0,0.8c0,0.4-0.1,0.8-0.3,1
		c-0.2,0.2-0.5,0.4-0.9,0.4c-0.4,0-0.7-0.1-0.9-0.4c-0.2-0.3-0.3-0.6-0.3-1c0-0.4,0.1-0.8,0.3-1.2c0.2-0.4,0.5-0.8,0.9-1.1
		s0.9-0.6,1.5-0.8c0.6-0.2,1.3-0.3,2.1-0.3c1,0,1.9,0.1,2.6,0.5c0.7,0.3,1.2,0.8,1.6,1.6c0.2,0.4,0.3,1.3,0.3,2.6v4.5
		c0,0.8,0,1.4,0,1.8c0,0.4,0.1,0.7,0.1,0.9c0.1,0.2,0.1,0.3,0.2,0.3c0.1,0,0.2,0,0.3,0c0.1,0,0.2,0,0.3,0c0.1,0,0.2-0.1,0.3-0.2
		c0.1-0.1,0.3-0.2,0.4-0.4s0.3-0.4,0.6-0.6v0.8c-1.1,1.4-2.1,2.2-3.1,2.2c-0.5,0-0.8-0.2-1.1-0.5C112.9,21,112.7,20.4,112.7,19.6z
		 M112.7,18.7v-5.1c-1,0.4-2.2,0.9-3.5,1.6c-0.5,0.3-0.8,0.6-1.1,1c-0.3,0.5-0.4,1-0.4,1.5c0,0.4,0.1,0.7,0.2,1
		c0.1,0.3,0.3,0.5,0.5,0.8c0.2,0.2,0.4,0.4,0.7,0.5s0.5,0.2,0.8,0.2C110.6,20.1,111.5,19.6,112.7,18.7z"/>
	<path class="st0" d="M122.3,10.6c1.6-1.9,3-2.8,4.4-2.8c0.5,0,0.9,0.1,1.4,0.3c0.4,0.2,0.8,0.4,1.1,0.8s0.6,0.9,0.7,1.5
		c0.2,0.6,0.3,1.4,0.3,2.4v5.7c0,0.6,0,1,0.1,1.4c0.1,0.3,0.2,0.6,0.3,0.8c0.1,0.2,0.4,0.3,0.6,0.3c0.3,0,0.6,0.1,1,0.1v0.5h-6.6V21
		h0.3c0.4,0,0.8,0,1-0.1s0.4-0.2,0.6-0.4c0.1-0.2,0.2-0.4,0.2-0.8c0-0.3,0.1-0.7,0.1-1.2V13c0-1.2-0.2-2.1-0.5-2.6
		c-0.3-0.5-0.8-0.8-1.6-0.8c-1.2,0-2.3,0.6-3.4,1.9v7c0,0.6,0,1,0.1,1.3c0,0.3,0.1,0.6,0.3,0.8c0.1,0.2,0.4,0.3,0.7,0.3
		s0.7,0.1,1.2,0.1v0.5h-6.6V21h0.3c0.3,0,0.6,0,0.9-0.1c0.2-0.1,0.4-0.2,0.5-0.4s0.2-0.4,0.3-0.8s0.1-0.7,0.1-1.2v-4.9
		c0-0.9,0-1.7,0-2.2s-0.1-0.9-0.2-1.1c-0.1-0.2-0.2-0.4-0.3-0.4c-0.1,0-0.3-0.1-0.5-0.1c-0.1,0-0.3,0-0.4,0.1
		c-0.2,0-0.3,0.1-0.5,0.2l-0.2-0.5l4-1.6h0.6L122.3,10.6L122.3,10.6z"/>
	<path class="st0" d="M137.1,3.9v4.3h3.1v1h-3.1v8.6c0,0.4,0,0.8,0.1,1.1s0.2,0.5,0.3,0.7s0.3,0.3,0.4,0.3c0.2,0.1,0.3,0.1,0.5,0.1
		c0.3,0,0.6-0.1,0.9-0.3c0.3-0.2,0.5-0.5,0.7-0.9h0.6c-0.3,1-0.8,1.7-1.4,2.1c-0.6,0.5-1.3,0.7-1.9,0.7c-0.8,0-1.4-0.3-1.8-0.8
		c-0.5-0.5-0.7-1.5-0.7-2.8V9.3h-2.1V8.8c0.8-0.3,1.6-0.9,2.2-1.6s1.3-1.9,1.8-3.3C136.6,3.9,137.1,3.9,137.1,3.9z"/>
	<rect y="26.1" class="st0" width="140.6" height="1"/>
	<g>
		<path class="st0" d="M9.1,47L3.2,34.2v10.3c0,0.5,0,0.9,0.1,1.2c0.1,0.3,0.2,0.5,0.3,0.7c0.1,0.2,0.3,0.2,0.5,0.3
			c0.2,0,0.4,0,0.7,0h0.5V47H0.1v-0.4h0.5c0.3,0,0.5,0,0.7-0.1s0.4-0.1,0.5-0.3c0.1-0.2,0.2-0.4,0.3-0.7c0.1-0.3,0.1-0.7,0.1-1.2
			v-10c0-0.4,0-0.7,0-1c0-0.3-0.1-0.5-0.3-0.7c-0.1-0.2-0.4-0.3-0.6-0.4c-0.3-0.1-0.7-0.2-1.2-0.2v-0.4h4.3l5.6,12l5.5-12h4.3v0.4
			h-0.5c-0.3,0-0.5,0-0.7,0.1c-0.2,0-0.4,0.1-0.5,0.3c-0.1,0.2-0.2,0.4-0.3,0.7c-0.1,0.3-0.1,0.7-0.1,1.2v10c0,0.5,0,0.9,0.1,1.2
			c0.1,0.3,0.2,0.5,0.3,0.7c0.1,0.2,0.3,0.2,0.5,0.3s0.4,0,0.7,0h0.5V47h-6.5v-0.4h0.5c0.3,0,0.5,0,0.7-0.1c0.2,0,0.4-0.1,0.5-0.3
			c0.1-0.2,0.2-0.4,0.3-0.7c0.1-0.3,0.1-0.7,0.1-1.2V34.2L9.5,47.1C9.5,47.1,9.1,47.1,9.1,47z"/>
		<path class="st0" d="M22.8,40.6c0,0.8,0.1,1.5,0.3,2.1s0.5,1.1,0.8,1.5c0.3,0.4,0.7,0.8,1.2,1c0.5,0.2,0.9,0.3,1.4,0.3
			c0.7,0,1.3-0.2,1.8-0.6c0.5-0.4,0.9-1,1.3-1.9l0.4,0.2c-0.1,0.5-0.2,1-0.5,1.5s-0.5,0.9-0.9,1.3c-0.4,0.4-0.8,0.7-1.3,0.9
			c-0.5,0.2-1,0.4-1.6,0.4c-0.6,0-1.2-0.1-1.8-0.4s-1-0.6-1.4-1.1s-0.7-1-1-1.7s-0.4-1.4-0.4-2.2c0-0.9,0.1-1.7,0.4-2.4
			s0.6-1.3,1-1.8s0.9-0.8,1.5-1.1s1.2-0.4,1.9-0.4c0.6,0,1.1,0.1,1.6,0.3c0.5,0.2,0.9,0.5,1.3,0.8c0.4,0.4,0.6,0.8,0.8,1.3
			c0.2,0.5,0.3,1.1,0.3,1.7L22.8,40.6L22.8,40.6z M22.8,39.9h4.8c-0.1-1-0.3-1.7-0.7-2.1c-0.4-0.4-0.9-0.7-1.6-0.7
			c-0.3,0-0.6,0.1-0.9,0.2c-0.3,0.1-0.5,0.3-0.8,0.5c-0.2,0.2-0.4,0.5-0.6,0.9S22.8,39.5,22.8,39.9z"/>
		<path class="st0" d="M38.6,45.9c-0.5,0.5-1,0.9-1.5,1.1s-1,0.3-1.6,0.3S34.5,47.2,34,47c-0.5-0.3-1-0.6-1.3-1.1s-0.7-1-0.9-1.6
			c-0.2-0.6-0.4-1.3-0.4-2c0-0.7,0.1-1.4,0.4-2.1c0.2-0.7,0.6-1.3,1-1.9s1-1,1.6-1.4s1.3-0.5,2-0.5c0.9,0,1.7,0.3,2.3,0.9v-1.9
			c0-0.7,0-1.3,0-1.7c0-0.4-0.1-0.7-0.1-0.8s-0.1-0.3-0.2-0.3c-0.1,0-0.2,0-0.4,0c-0.2,0-0.5,0.1-0.8,0.2l-0.2-0.4L40,31h0.5v12
			c0,0.7,0,1.3,0,1.7s0.1,0.7,0.1,0.9s0.1,0.3,0.3,0.3c0.1,0,0.2,0.1,0.4,0.1c0.2,0,0.5-0.1,0.8-0.2l0.1,0.4l-3.1,1.3h-0.5
			L38.6,45.9L38.6,45.9z M38.6,45.1v-5.3c0-0.4-0.1-0.8-0.3-1.1c-0.2-0.3-0.3-0.6-0.6-0.8c-0.2-0.2-0.5-0.4-0.7-0.5
			c-0.3-0.1-0.5-0.2-0.8-0.2c-0.4,0-0.8,0.1-1.1,0.3c-0.3,0.2-0.6,0.5-0.9,0.9c-0.3,0.4-0.5,0.8-0.6,1.4c-0.2,0.5-0.2,1.1-0.2,1.8
			c0,0.8,0.1,1.4,0.3,2s0.4,1.1,0.7,1.5c0.3,0.4,0.6,0.7,1,0.9s0.8,0.3,1.2,0.3C37.3,46.1,38,45.8,38.6,45.1z"/>
		<path class="st0" d="M46.5,36.4v8.3c0,0.5,0,0.9,0.1,1.1c0.1,0.3,0.2,0.5,0.3,0.6c0.1,0.1,0.3,0.2,0.5,0.2c0.2,0,0.4,0,0.7,0V47
			h-5v-0.4c0.3,0,0.6,0,0.8-0.1c0.2,0,0.4-0.2,0.5-0.3c0.1-0.2,0.2-0.3,0.2-0.6s0-0.6,0-1v-4c0-0.7,0-1.2,0-1.5s-0.1-0.7-0.1-0.8
			c-0.1-0.2-0.1-0.3-0.2-0.4c-0.1,0-0.2-0.1-0.4-0.1c-0.1,0-0.2,0-0.3,0C43.3,38,43.2,38,43,38l-0.2-0.4l3.1-1.3L46.5,36.4
			L46.5,36.4z M45.5,31c0.3,0,0.6,0.1,0.8,0.3s0.3,0.5,0.3,0.8c0,0.3-0.1,0.6-0.3,0.8s-0.5,0.3-0.8,0.3c-0.3,0-0.6-0.1-0.8-0.3
			c-0.2-0.2-0.3-0.5-0.3-0.8c0-0.3,0.1-0.6,0.3-0.8C44.9,31.1,45.2,31,45.5,31z"/>
		<path class="st0" d="M58.1,43.1c-0.1,0.7-0.3,1.3-0.6,1.8c-0.3,0.5-0.6,1-1,1.3s-0.8,0.6-1.3,0.8c-0.5,0.2-0.9,0.3-1.4,0.3
			c-0.6,0-1.1-0.1-1.7-0.4c-0.5-0.3-1-0.6-1.4-1.1c-0.4-0.5-0.7-1-1-1.7c-0.2-0.7-0.4-1.4-0.4-2.3c0-0.8,0.1-1.5,0.4-2.2
			c0.3-0.7,0.6-1.3,1.1-1.7c0.5-0.5,1-0.9,1.6-1.1s1.2-0.4,1.9-0.4c0.5,0,1,0.1,1.4,0.2c0.4,0.2,0.8,0.3,1.1,0.6s0.6,0.5,0.7,0.8
			c0.2,0.3,0.3,0.6,0.3,0.9c0,0.3-0.1,0.5-0.3,0.7c-0.2,0.2-0.5,0.3-0.8,0.3c-0.3,0-0.6-0.1-0.9-0.3c-0.2-0.2-0.4-0.5-0.4-1.1
			c-0.1-0.9-0.6-1.3-1.5-1.3c-0.5,0-0.8,0.1-1.2,0.3s-0.6,0.5-0.9,0.8s-0.4,0.7-0.5,1.2c-0.1,0.5-0.2,0.9-0.2,1.4
			c0,0.6,0.1,1.2,0.2,1.7c0.2,0.6,0.4,1.1,0.7,1.5c0.3,0.4,0.7,0.8,1.1,1.1c0.4,0.3,0.9,0.4,1.4,0.4c0.3,0,0.6,0,0.9-0.1
			c0.3-0.1,0.6-0.2,0.8-0.4c0.3-0.2,0.5-0.5,0.8-0.8c0.2-0.3,0.5-0.8,0.7-1.3L58.1,43.1z"/>
		<path class="st0" d="M65.5,45.6c-0.5,0.4-1,0.7-1.3,1c-0.3,0.2-0.6,0.4-0.7,0.5c-0.4,0.2-0.8,0.3-1.3,0.3c-0.4,0-0.7-0.1-1-0.2
			c-0.3-0.1-0.6-0.3-0.8-0.5c-0.2-0.2-0.4-0.5-0.5-0.8s-0.2-0.7-0.2-1.1c0-0.5,0.1-0.9,0.3-1.3s0.5-0.7,0.9-1s0.9-0.6,1.5-0.8
			c1-0.5,2-0.9,3.1-1.3v-0.4c0-0.5,0-1-0.1-1.3c-0.1-0.3-0.2-0.6-0.4-0.8s-0.4-0.4-0.6-0.4c-0.2-0.1-0.5-0.1-0.8-0.1
			c-0.5,0-0.9,0.1-1.2,0.4S62,38,62,38.3l0,0.7c0,0.3-0.1,0.6-0.3,0.8c-0.2,0.2-0.4,0.3-0.7,0.3c-0.3,0-0.5-0.1-0.7-0.3
			s-0.3-0.5-0.3-0.8c0-0.3,0.1-0.6,0.3-0.9c0.2-0.3,0.4-0.6,0.7-0.8c0.3-0.3,0.7-0.5,1.2-0.6c0.5-0.2,1-0.2,1.6-0.2
			c0.8,0,1.5,0.1,2,0.3c0.6,0.2,1,0.6,1.2,1.2c0.1,0.3,0.2,1,0.2,2v3.5c0,0.6,0,1.1,0,1.4c0,0.3,0.1,0.6,0.1,0.7
			c0,0.2,0.1,0.2,0.2,0.3s0.2,0,0.3,0c0.1,0,0.2,0,0.2,0s0.1-0.1,0.2-0.1c0.1-0.1,0.2-0.2,0.3-0.3c0.1-0.1,0.3-0.3,0.5-0.5v0.6
			c-0.8,1.1-1.7,1.7-2.4,1.7c-0.4,0-0.7-0.1-0.9-0.4C65.6,46.6,65.5,46.2,65.5,45.6z M65.5,44.8v-4c-0.8,0.3-1.7,0.7-2.7,1.2
			c-0.4,0.2-0.7,0.5-0.9,0.8c-0.2,0.3-0.3,0.7-0.3,1.2c0,0.3,0,0.5,0.1,0.8s0.2,0.4,0.4,0.6s0.3,0.3,0.5,0.4s0.4,0.1,0.6,0.1
			C63.8,46,64.5,45.6,65.5,44.8z"/>
		<path class="st0" d="M73.4,31v13.8c0,0.5,0,0.8,0.1,1.1s0.1,0.5,0.3,0.6s0.3,0.2,0.5,0.2c0.2,0,0.5,0,0.8,0v0.4H70v-0.4
			c0.3,0,0.6,0,0.8-0.1c0.2,0,0.4-0.2,0.5-0.3c0.1-0.2,0.2-0.3,0.2-0.6s0.1-0.6,0.1-1v-9.4c0-0.7,0-1.3,0-1.7c0-0.4-0.1-0.7-0.1-0.8
			c-0.1-0.2-0.1-0.3-0.2-0.3c-0.1,0-0.2,0-0.4,0c-0.2,0-0.5,0.1-0.7,0.2l-0.2-0.4l3.1-1.3C72.9,31,73.4,31,73.4,31z"/>
	</g>
	<path class="st0" d="M93.9,37.2h4.8v0.4c-0.7,0-1.1,0.2-1.5,0.4c-0.1,0.1-0.3,0.4-0.6,0.8c-0.3,0.4-0.6,0.9-0.9,1.4
		c-0.3,0.5-0.7,1.1-1.1,1.7c-0.4,0.6-0.8,1.1-1.2,1.6c0.7,0.8,1.3,1.3,1.8,1.7c0.5,0.3,1.1,0.5,1.6,0.5c0.5,0,1-0.1,1.3-0.4
		s0.6-0.7,0.8-1.3l0.4,0.3c-0.3,1.1-0.7,1.8-1.3,2.3c-0.6,0.5-1.3,0.8-2.2,0.8c-0.6,0-1.3-0.2-1.9-0.5c-0.6-0.3-1.3-0.9-2.1-1.7
		c-0.5,0.4-0.9,0.8-1.3,1c-0.4,0.3-0.8,0.5-1.2,0.7c-0.4,0.2-0.8,0.3-1.2,0.4c-0.4,0.1-0.8,0.1-1.3,0.1c-0.6,0-1.2-0.1-1.7-0.3
		s-0.9-0.4-1.3-0.7c-0.3-0.3-0.6-0.7-0.8-1.1c-0.2-0.4-0.3-0.8-0.3-1.3c0-0.9,0.3-1.8,1-2.7c0.3-0.5,0.8-0.9,1.4-1.4
		c0.6-0.5,1.4-1,2.3-1.4c-0.2-0.4-0.3-0.8-0.4-1.1s-0.2-0.6-0.3-0.8c-0.1-0.3-0.1-0.5-0.2-0.7c0-0.2,0-0.5,0-0.7
		c0-0.6,0.1-1.1,0.3-1.5c0.2-0.5,0.5-0.9,0.8-1.2c0.3-0.3,0.8-0.6,1.3-0.8s1-0.3,1.6-0.3c0.4,0,0.8,0.1,1.2,0.2s0.7,0.3,1,0.6
		s0.5,0.5,0.6,0.9c0.2,0.3,0.2,0.7,0.2,1.1c0,0.4-0.1,0.8-0.2,1.1s-0.3,0.7-0.6,1c-0.3,0.3-0.7,0.6-1.2,1c-0.5,0.3-1.1,0.7-1.8,1
		c0.5,0.9,1,1.7,1.5,2.5s1,1.5,1.5,2.2c1.3-1.6,2-2.9,2-4c0-0.3-0.1-0.6-0.3-0.8c-0.2-0.3-0.4-0.4-0.8-0.5L93.9,37.2L93.9,37.2z
		 M91.3,44.5c-0.5-0.7-0.9-1.3-1.3-1.8c-0.3-0.5-0.6-0.9-0.8-1.2c-0.4-0.6-0.8-1.4-1.3-2.3c-1.8,1-2.7,2.3-2.7,3.8
		c0,0.4,0.1,0.8,0.2,1.2c0.1,0.4,0.3,0.7,0.6,1c0.3,0.3,0.6,0.5,0.9,0.7c0.4,0.2,0.8,0.3,1.2,0.3c0.2,0,0.5,0,0.7-0.1
		c0.2,0,0.4-0.1,0.7-0.2c0.2-0.1,0.5-0.3,0.8-0.5C90.6,45.1,90.9,44.8,91.3,44.5z M89.6,37.5c1.9-0.9,2.8-2,2.8-3.4
		c0-0.5-0.2-1-0.5-1.3c-0.3-0.4-0.8-0.5-1.3-0.5c-0.3,0-0.6,0.1-0.9,0.2c-0.3,0.1-0.4,0.3-0.6,0.5c-0.2,0.2-0.3,0.4-0.4,0.7
		s-0.1,0.5-0.1,0.7c0,0.2,0,0.4,0,0.6s0.1,0.4,0.1,0.7s0.2,0.5,0.3,0.8C89.2,36.6,89.4,37,89.6,37.5z"/>
	<g>
		<path class="st0" d="M116.5,31.4v5.3h-0.4c-0.2-1.4-0.7-2.5-1.4-3.3c-0.7-0.8-1.7-1.1-2.8-1.1c-0.4,0-0.8,0.1-1.1,0.2
			c-0.3,0.1-0.6,0.3-0.9,0.5c-0.3,0.2-0.4,0.5-0.6,0.8c-0.1,0.3-0.2,0.6-0.2,0.9c0,0.3,0.1,0.5,0.2,0.8s0.5,0.7,1.1,1.2
			c1,0.6,1.8,1.1,2.6,1.5c0.7,0.4,1.7,1,2.9,1.8c0.5,0.4,0.9,0.9,1.2,1.4c0.3,0.6,0.4,1.1,0.4,1.8c0,0.6-0.1,1.1-0.4,1.6
			c-0.2,0.5-0.6,1-1,1.4c-0.4,0.4-0.9,0.7-1.5,0.9s-1.3,0.3-2,0.3c-0.4,0-0.9,0-1.3-0.1c-0.1,0-0.2-0.1-0.5-0.1
			c-0.3-0.1-0.6-0.2-0.9-0.3s-0.6-0.2-0.9-0.3c-0.3-0.1-0.4-0.1-0.5-0.1c-0.2,0-0.3,0.1-0.4,0.2c-0.1,0.1-0.2,0.3-0.2,0.7h-0.4v-5.3
			h0.4c0.2,1.1,0.5,1.9,0.8,2.5c0.2,0.3,0.4,0.5,0.6,0.8c0.3,0.2,0.6,0.4,0.9,0.6c0.3,0.2,0.7,0.3,1.1,0.4c0.4,0.1,0.8,0.1,1.2,0.1
			c0.5,0,0.9-0.1,1.3-0.2s0.7-0.3,1-0.5s0.5-0.5,0.6-0.8s0.2-0.6,0.2-1c0-0.4-0.1-0.8-0.3-1.2s-0.6-0.8-1.1-1.1
			c-0.5-0.3-1.1-0.6-1.7-1c-1.3-0.7-2.4-1.4-3.4-2.1c-0.6-0.4-1-0.9-1.3-1.4s-0.4-1.1-0.4-1.8c0-0.5,0.1-1.1,0.3-1.5
			c0.2-0.5,0.5-0.9,0.9-1.3c0.4-0.4,0.9-0.7,1.4-0.9c0.6-0.2,1.2-0.3,1.8-0.3c0.8,0,1.7,0.2,2.6,0.6c0.2,0.1,0.4,0.2,0.5,0.2
			c0.2,0.1,0.3,0.1,0.4,0.1c0.2,0,0.4-0.1,0.5-0.2c0.1-0.1,0.2-0.4,0.3-0.7L116.5,31.4L116.5,31.4z"/>
		<path class="st0" d="M118.7,37.7l3.2-1.3h0.4v2.4c0.5-0.9,1.1-1.5,1.6-1.9c0.5-0.4,1.1-0.5,1.7-0.5c0.6,0,1.1,0.1,1.6,0.4
			c0.5,0.3,0.9,0.6,1.2,1.1c0.3,0.5,0.6,1,0.8,1.6c0.2,0.6,0.3,1.3,0.3,2c0,0.8-0.1,1.5-0.3,2.3s-0.5,1.3-0.9,1.9
			c-0.4,0.5-0.9,1-1.5,1.3c-0.6,0.3-1.2,0.5-2,0.5c-0.3,0-0.5,0-0.7,0s-0.4-0.1-0.6-0.1c-0.2-0.1-0.4-0.2-0.6-0.3s-0.4-0.3-0.6-0.5
			v3.2c0,0.4,0,0.7,0,0.9c0,0.2,0.1,0.4,0.1,0.5c0.1,0.1,0.1,0.2,0.2,0.3c0.1,0.1,0.2,0.1,0.3,0.2c0.2,0.1,0.6,0.2,1.2,0.2V52h-5.4
			v-0.4h0.3c0.3,0,0.5,0,0.7,0s0.3-0.1,0.5-0.2c0.1-0.1,0.2-0.3,0.3-0.6s0.1-0.7,0.1-1.2v-9.8c0-0.4,0-0.7,0-1
			c0-0.2-0.1-0.4-0.1-0.6S120.1,38,120,38c-0.1,0-0.3-0.1-0.4-0.1c-0.1,0-0.2,0-0.3,0c-0.1,0-0.2,0.1-0.4,0.1L118.7,37.7z
			 M122.3,39.5v3.9c0,0.8,0,1.4,0.1,1.7c0.1,0.2,0.1,0.4,0.3,0.6c0.1,0.2,0.3,0.4,0.5,0.5c0.2,0.2,0.4,0.3,0.7,0.4
			c0.3,0.1,0.6,0.1,0.8,0.1c0.4,0,0.8-0.1,1.2-0.3c0.3-0.2,0.6-0.5,0.9-0.9c0.2-0.4,0.4-0.8,0.5-1.3c0.1-0.5,0.2-1.1,0.2-1.7
			c0-0.7-0.1-1.3-0.2-1.8c-0.1-0.5-0.3-1-0.6-1.4c-0.2-0.4-0.5-0.7-0.9-1s-0.7-0.3-1.1-0.3c-0.2,0-0.3,0-0.5,0
			c-0.2,0-0.3,0.1-0.5,0.2c-0.2,0.1-0.4,0.2-0.6,0.5C123,38.9,122.7,39.2,122.3,39.5z"/>
		<path class="st0" d="M136.9,45.6c-0.5,0.4-1,0.7-1.3,1s-0.6,0.4-0.7,0.5c-0.4,0.2-0.9,0.3-1.3,0.3c-0.4,0-0.7-0.1-1-0.2
			c-0.3-0.1-0.6-0.3-0.8-0.5s-0.4-0.5-0.5-0.8s-0.2-0.7-0.2-1.1c0-0.5,0.1-0.9,0.3-1.3s0.5-0.7,0.9-1s0.9-0.6,1.5-0.8
			c1-0.5,2-0.9,3.1-1.3v-0.4c0-0.5,0-1-0.1-1.3c-0.1-0.3-0.2-0.6-0.4-0.8s-0.4-0.4-0.6-0.4c-0.2-0.1-0.5-0.1-0.8-0.1
			c-0.5,0-0.9,0.1-1.1,0.4s-0.4,0.5-0.4,0.9l0,0.7c0,0.3-0.1,0.6-0.3,0.8c-0.2,0.2-0.4,0.3-0.7,0.3c-0.3,0-0.5-0.1-0.7-0.3
			c-0.2-0.2-0.3-0.5-0.3-0.8c0-0.3,0.1-0.6,0.3-0.9s0.4-0.6,0.7-0.8c0.3-0.3,0.7-0.5,1.2-0.6c0.5-0.2,1-0.2,1.6-0.2
			c0.8,0,1.5,0.1,2,0.3c0.6,0.2,1,0.6,1.2,1.2c0.1,0.3,0.2,1,0.2,2v3.5c0,0.6,0,1.1,0,1.4s0.1,0.6,0.1,0.7c0.1,0.2,0.1,0.2,0.2,0.3
			c0.1,0,0.1,0,0.3,0c0.1,0,0.1,0,0.2,0s0.1-0.1,0.2-0.1c0.1-0.1,0.2-0.2,0.3-0.3c0.1-0.1,0.3-0.3,0.5-0.5v0.6
			c-0.8,1.1-1.6,1.7-2.4,1.7c-0.4,0-0.6-0.1-0.9-0.4C137.1,46.6,136.9,46.2,136.9,45.6z M136.9,44.8v-4c-0.8,0.3-1.7,0.7-2.7,1.2
			c-0.4,0.2-0.7,0.5-0.9,0.8c-0.2,0.3-0.3,0.7-0.3,1.2c0,0.3,0,0.5,0.1,0.8c0.1,0.2,0.2,0.4,0.4,0.6s0.3,0.3,0.5,0.4
			c0.2,0.1,0.4,0.1,0.6,0.1C135.3,46,136,45.6,136.9,44.8z"/>
	</g>
</g>
</svg>
